<?xml version="1.0" encoding="utf-8"?>
<!-- Generator: Adobe Illustrator 15.1.0, SVG Export Plug-In . SVG Version: 6.00 Build 0)  -->
<!DOCTYPE svg PUBLIC "-//W3C//DTD SVG 1.1//EN" "http://www.w3.org/Graphics/SVG/1.1/DTD/svg11.dtd">
<svg version="1.1" id="Layer_1" xmlns="http://www.w3.org/2000/svg" xmlns:xlink="http://www.w3.org/1999/xlink" x="0px" y="0px"
	 width="262.999px" height="82.506px" viewBox="0 0 262.999 82.506" enable-background="new 0 0 262.999 82.506"
	 xml:space="preserve">
<g>
	<g>
		<path fill="#FFFFFF" d="M0,29.887h11.455v29.979h8.282V29.887h11.445v-7.622H0V29.887z M69.574,34.784v-0.112
			c0-7.733-5.331-12.406-14.195-12.406H39.033v37.601h8.275V47.836h5.655l8.057,12.029h9.676L61.51,46.441
			C66.297,44.663,69.574,40.854,69.574,34.784z M61.18,35.209c0,3.17-2.304,5.313-6.338,5.313h-7.534V29.732h7.371
			c4.039,0,6.501,1.819,6.501,5.371V35.209z M129.017,40.206c2.686-1.502,4.951-3.868,4.951-8.113v-0.097
			c0-5.917-4.73-9.73-12.419-9.73h-17.476v37.601h17.906c8.489,0,14.088-3.435,14.088-10.311v-0.111
			C136.066,44.4,133.368,41.878,129.017,40.206z M112.135,29.519h8.181c3.49,0,5.423,1.394,5.423,3.866v0.104
			c0,2.794-2.309,3.978-5.964,3.978h-7.64V29.519z M127.834,48.534c0,2.796-2.208,4.079-5.856,4.079h-9.843v-8.271h9.57
			c4.245,0,6.129,1.566,6.129,4.087V48.534z M154.424,44.615h17.742v-7.36h-17.742v-7.642h20.151v-7.347h-28.374v37.601h28.65
			v-7.354h-20.428V44.615z M202.137,52.884c-6.453,0-10.913-5.371-10.913-11.812v-0.113c0-6.447,4.567-11.712,10.913-11.712
			c3.765,0,6.722,1.607,9.631,4.242l5.262-6.064c-3.493-3.446-7.744-5.804-14.837-5.804c-11.556,0-19.61,8.759-19.61,19.452v0.098
			c0,10.798,8.219,19.341,19.282,19.341c7.265,0,11.568-2.574,15.438-6.715l-5.279-5.316
			C209.074,51.162,206.437,52.884,202.137,52.884z M246.884,21.991h-7.636l-16.123,37.875h8.426L235,51.43h15.911l3.441,8.436h8.646
			L246.884,21.991z M237.949,44.129l5.003-12.197l5.003,12.197H237.949z M81.254,82.506h8.493V0h-8.493V82.506z"/>
	</g>
</g>
</svg>
